tugOfWar_states
nRows=27
nColumns=19

# SIMM Motion File Header:
name tugOfWar_states
datacolumns 19
datarows 27
otherdata 1
range 1.26865505 1.30725331
endheader
time	blockToGround_xRotation	blockToGround_yRotation	blockToGround_zRotation	blockToGround_xTranslation	blockToGround_yTranslation	blockToGround_zTranslation	blockToGround_xRotation_u	blockToGround_yRotation_u	blockToGround_zRotation_u	blockToGround_xTranslation_u	blockToGround_yTranslation_u	blockToGround_zTranslation_u	Liu.activation	Liu.fiber_length	Liu.active_motor_units	Liu.fatigued_motor_units	Thelen.activation	Thelen.fiber_length
      1.26865505	      0.00000000	      0.00000000	     -0.00000000	      0.00000000	     -0.00019559	     -0.02548839	      0.00000000	      0.00000000	     -0.00000000	      0.00000000	      0.00000042	     -0.01390439	      0.25447375	      0.07190146	      0.25447375	      0.00000000	      0.25447375	      0.12208828
      1.27053498	      0.00000000	      0.00000000	     -0.00000000	      0.00000000	     -0.00019559	     -0.02551451	      0.00000000	      0.00000000	     -0.00000000	      0.00000000	      0.00000043	     -0.01388378	      0.25447271	      0.07187359	      0.25447271	      0.00000000	      0.25447271	      0.12211241
      1.27227577	      0.00000000	      0.00000000	     -0.00000000	      0.00000000	     -0.00019559	     -0.02553866	      0.00000000	      0.00000000	     -0.00000000	      0.00000000	      0.00000043	     -0.01386376	      0.25447238	      0.07184847	      0.25447238	      0.00000000	      0.25447238	      0.12213514
      1.27286338	      0.00000000	      0.00000000	     -0.00000000	      0.00000000	     -0.00019559	     -0.02554681	      0.00000000	      0.00000000	     -0.00000000	      0.00000000	      0.00000042	     -0.01385571	      0.25437278	      0.07184006	      0.25437278	      0.00000000	      0.25437278	      0.12214285
      1.27395851	      0.00000000	      0.00000000	     -0.00000000	      0.00000000	     -0.00019559	     -0.02556197	      0.00000000	      0.00000000	     -0.00000000	      0.00000000	      0.00000041	     -0.01384091	      0.25508805	      0.07182414	      0.25508805	      0.00000000	      0.25508805	      0.12215695
      1.27505364	      0.00000000	      0.00000000	     -0.00000000	      0.00000000	     -0.00019559	     -0.02557712	      0.00000000	      0.00000000	     -0.00000000	      0.00000000	      0.00000041	     -0.01382426	      0.25508785	      0.07180826	      0.25508785	      0.00000000	      0.25508785	      0.12217114
      1.27570792	      0.00000000	      0.00000000	     -0.00000000	      0.00000000	     -0.00019559	     -0.02558616	      0.00000000	      0.00000000	     -0.00000000	      0.00000000	      0.00000040	     -0.01381416	      0.25509351	      0.07179887	      0.25509351	      0.00000000	      0.25509351	      0.12217967
      1.27764299	      0.00000000	      0.00000000	     -0.00000000	      0.00000000	     -0.00019559	     -0.02561286	      0.00000000	      0.00000000	     -0.00000000	      0.00000000	      0.00000041	     -0.01379203	      0.25632629	      0.07177014	      0.25632629	      0.00000000	      0.25632629	      0.12220386
      1.27957806	      0.00000000	      0.00000000	     -0.00000000	      0.00000000	     -0.00019558	     -0.02563952	      0.00000000	      0.00000000	     -0.00000000	      0.00000000	      0.00000042	     -0.01376483	      0.25632512	      0.07174161	      0.25632512	      0.00000000	      0.25632512	      0.12222840
      1.28138355	      0.00000000	      0.00000000	     -0.00000000	      0.00000000	     -0.00019558	     -0.02566436	      0.00000000	      0.00000000	     -0.00000000	      0.00000000	      0.00000042	     -0.01374009	      0.25632471	      0.07171575	      0.25632471	      0.00000000	      0.25632471	      0.12225173
      1.28200095	      0.00000000	      0.00000000	     -0.00000000	      0.00000000	     -0.00019558	     -0.02567284	      0.00000000	      0.00000000	     -0.00000000	      0.00000000	      0.00000041	     -0.01373051	      0.25634602	      0.07170701	      0.25634602	      0.00000000	      0.25634602	      0.12225978
      1.28366877	      0.00000000	      0.00000000	     -0.00000000	      0.00000000	     -0.00019558	     -0.02569571	      0.00000000	      0.00000000	     -0.00000000	      0.00000000	      0.00000041	     -0.01370742	      0.25731584	      0.07168272	      0.25731584	      0.00000000	      0.25731584	      0.12228080
      1.28533659	      0.00000000	      0.00000000	     -0.00000000	      0.00000000	     -0.00019558	     -0.02571855	      0.00000000	      0.00000000	     -0.00000000	      0.00000000	      0.00000041	     -0.01368170	      0.25731515	      0.07165852	      0.25731515	      0.00000000	      0.25731515	      0.12230202
      1.28903659	      0.00000000	      0.00000000	     -0.00000000	      0.00000000	     -0.00019558	     -0.02576907	      0.00000000	      0.00000000	     -0.00000000	      0.00000000	      0.00000042	     -0.01363546	      0.25791980	      0.07160563	      0.25791980	      0.00000000	      0.25791980	      0.12234916
      1.28975634	      0.00000000	      0.00000000	     -0.00000000	      0.00000000	     -0.00019558	     -0.02577887	      0.00000000	      0.00000000	     -0.00000000	      0.00000000	      0.00000041	     -0.01362134	      0.25790956	      0.07159543	      0.25790956	      0.00000000	      0.25790956	      0.12235842
      1.29152423	      0.00000000	      0.00000000	     -0.00000000	      0.00000000	     -0.00019558	     -0.02580292	      0.00000000	      0.00000000	     -0.00000000	      0.00000000	      0.00000040	     -0.01359401	      0.25901483	      0.07156964	      0.25901483	      0.00000000	      0.25901483	      0.12238035
      1.29329213	      0.00000000	      0.00000000	     -0.00000000	      0.00000000	     -0.00019558	     -0.02582693	      0.00000000	      0.00000000	     -0.00000000	      0.00000000	      0.00000041	     -0.01356661	      0.25901389	      0.07154398	      0.25901389	      0.00000000	      0.25901389	      0.12240252
      1.29501936	      0.00000000	      0.00000000	     -0.00000000	      0.00000000	     -0.00019558	     -0.02585034	      0.00000000	      0.00000000	     -0.00000000	      0.00000000	      0.00000040	     -0.01354187	      0.25901357	      0.07151959	      0.25901357	      0.00000000	      0.25901357	      0.12242454
      1.29560069	      0.00000000	      0.00000000	     -0.00000000	      0.00000000	     -0.00019558	     -0.02585821	      0.00000000	      0.00000000	     -0.00000000	      0.00000000	      0.00000040	     -0.01353285	      0.25868649	      0.07151142	      0.25868649	      0.00000000	      0.25868649	      0.12243197
      1.29648232	      0.00000000	      0.00000000	     -0.00000000	      0.00000000	     -0.00019558	     -0.02587014	      0.00000000	      0.00000000	     -0.00000000	      0.00000000	      0.00000040	     -0.01352033	      0.25981320	      0.07149879	      0.25981320	      0.00000000	      0.25981320	      0.12244291
      1.29736395	      0.00000000	      0.00000000	     -0.00000000	      0.00000000	     -0.00019558	     -0.02588205	      0.00000000	      0.00000000	     -0.00000000	      0.00000000	      0.00000040	     -0.01350657	      0.25981282	      0.07148610	      0.25981282	      0.00000000	      0.25981282	      0.12245395
      1.29907171	      0.00000000	      0.00000000	     -0.00000000	      0.00000000	     -0.00019558	     -0.02590510	      0.00000000	      0.00000000	     -0.00000000	      0.00000000	      0.00000039	     -0.01348178	      0.25980634	      0.07146200	      0.25980634	      0.00000000	      0.25980634	      0.12247558
      1.29971280	      0.00000000	      0.00000000	     -0.00000000	      0.00000000	     -0.00019558	     -0.02591374	      0.00000000	      0.00000000	     -0.00000000	      0.00000000	      0.00000039	     -0.01347203	      0.25917229	      0.07145297	      0.25917229	      0.00000000	      0.25917229	      0.12248369
      1.30054457	      0.00000000	      0.00000000	     -0.00000000	      0.00000000	     -0.00019558	     -0.02592494	      0.00000000	      0.00000000	     -0.00000000	      0.00000000	      0.00000039	     -0.01346163	      0.26097334	      0.07144092	      0.26097334	      0.00000000	      0.26097334	      0.12249424
      1.30137635	      0.00000000	      0.00000000	     -0.00000000	      0.00000000	     -0.00019558	     -0.02593613	      0.00000000	      0.00000000	     -0.00000000	      0.00000000	      0.00000039	     -0.01345552	      0.26097269	      0.07142871	      0.26097269	      0.00000000	      0.26097269	      0.12250435
      1.30507635	      0.00000000	      0.00000000	     -0.00000000	      0.00000000	     -0.00019557	     -0.02598586	      0.00000000	      0.00000000	     -0.00000000	      0.00000000	      0.00000040	     -0.01342008	      0.26064746	      0.07137651	      0.26064746	      0.00000000	      0.26064746	      0.12255056
      1.30725331	      0.00000000	      0.00000000	     -0.00000000	      0.00000000	     -0.00019557	     -0.02601503	      0.00000000	      0.00000000	     -0.00000000	      0.00000000	      0.00000043	     -0.01339870	      0.26157338	      0.07134600	      0.26157338	      0.00000000	      0.26157338	      0.12257721
